<?xml version="1.0" encoding="utf-8"?>
<!-- Generator: Adobe Illustrator 19.2.1, SVG Export Plug-In . SVG Version: 6.00 Build 0)  -->
<svg version="1.1" id="Ebene_1" xmlns="http://www.w3.org/2000/svg" xmlns:xlink="http://www.w3.org/1999/xlink" x="0px" y="0px"
	 width="120px" height="100px" viewBox="0 0 120 100" enable-background="new 0 0 120 100" xml:space="preserve">
<g opacity="0.5">
	<path fill="#797D80" d="M76,74H36c-1.6,0-3-1.4-3-3V27c0-5.3-0.4-8,3-8v-1c-4.5,0-5,2.7-5,7l0.1,46c0,2.8,2.2,5,5,5H76V74z"/>
</g>
<g>
	<path opacity="0.25" fill="#797D80" d="M43,76v8h2l0.8-4.2c0.1-0.5,0.5-0.8,1-0.8h6.4c0.8,0,1.3,0.8,0.9,1.5L52,84h2l6-4l6,4h2
		l-2.1-3.5C65.5,79.8,66,79,66.8,79h6.4c0.5,0,0.9,0.3,1,0.8L75,84h2v-8H43z"/>
	<g opacity="0.5">
		<path fill="#797D80" d="M94,90.5c0,0.8-16.6,1.5-34,1.5s-34-0.7-34-1.5S42.6,89,60,89S94,89.7,94,90.5z"/>
	</g>
	<g opacity="0.75">
		<path fill="#797D80" d="M77,86h-8c-0.6,0-1-0.4-1-1s0.4-1,1-1h8c0.6,0,1,0.4,1,1S77.6,86,77,86z"/>
	</g>
	<g opacity="0.5">
		<path fill="#797D80" d="M80,90H65c-0.6,0-1-0.4-1-1s0.4-1,1-1h15c0.6,0,1,0.4,1,1S80.6,90,80,90z"/>
	</g>
	<g opacity="0.5">
		<path fill="#797D80" d="M55,90H40c-0.6,0-1-0.4-1-1s0.4-1,1-1h15c0.6,0,1,0.4,1,1S55.6,90,55,90z"/>
	</g>
	<g opacity="0.5">
		<path fill="#797D80" d="M77,84c-0.6,0-1-0.4-1-1v-4c0-0.6-0.4-1-1-1H45c-0.6,0-1,0.4-1,1v4c0,0.6-0.4,1-1,1s-1-0.4-1-1v-7h36v7
			C78,83.6,77.6,84,77,84z"/>
	</g>
	<g opacity="0.75">
		<path fill="#797D80" d="M51,86h-8c-0.6,0-1-0.4-1-1s0.4-1,1-1h8c0.6,0,1,0.4,1,1S51.6,86,51,86z"/>
	</g>
</g>
<g>
	<path fill="#797D80" d="M35,75c-1.7,0-3-1.3-3-3V22c0-1.7,1.3-3,3-3h50c1.7,0,3,1.3,3,3v45c0.6,0.9,1.2,1.2,2,1.5V22
		c0-2.8-2.2-5-5-5H35c-2.8,0-5,2.2-5,5v50c0,2.8,2.2,5,5,5h6.1l0.8,6H40c-2.2,0-4,1.8-4,4v1c0,1.7,1.3,3,3,3h17c1.7,0,3-1.3,3-3v-1
		c0-1.8-1.2-3.3-2.8-3.8l1.7-1.7c1.2-1.2,3.1-1.2,4.2,0l1.7,1.7c-1.6,0.5-2.8,2-2.8,3.8v1c0,1.7,1.3,3,3,3h17c1.7,0,3-1.3,3-3v-1
		c0-2.2-1.8-4-4-4h-1.9l0.8-6h2.9c-1.7-0.5-3.4-1.2-4.8-2H35z M57,87v1c0,0.6-0.4,1-1,1H39c-0.6,0-1-0.4-1-1v-1c0-1.1,0.9-2,2-2h15
		C56.1,85,57,85.9,57,87z M63.5,80.1c-2-1.9-5.1-1.9-7.1,0L53.6,83h-9.7l-0.8-6h33.7l-0.8,6h-9.7L63.5,80.1z M80,85c1.1,0,2,0.9,2,2
		v1c0,0.6-0.4,1-1,1H64c-0.6,0-1-0.4-1-1v-1c0-1.1,0.9-2,2-2H80z"/>
</g>
<g opacity="0.5">
	<g>
		<path fill="#797D80" d="M83,24v6h-6v-6H83 M83,22h-6c-1.1,0-2,0.9-2,2v6c0,1.1,0.9,2,2,2h6c1.1,0,2-0.9,2-2v-6
			C85,22.9,84.1,22,83,22L83,22z"/>
	</g>
</g>
<g opacity="0.5">
	<g>
		<path fill="#797D80" d="M43,24v6h-6v-6H43 M43,22h-6c-1.1,0-2,0.9-2,2v6c0,1.1,0.9,2,2,2h6c1.1,0,2-0.9,2-2v-6
			C45,22.9,44.1,22,43,22L43,22z"/>
	</g>
</g>
<g opacity="0.5">
	<g>
		<path fill="#797D80" d="M43,64v6h-6v-6H43 M43,62h-6c-1.1,0-2,0.9-2,2v6c0,1.1,0.9,2,2,2h6c1.1,0,2-0.9,2-2v-6
			C45,62.9,44.1,62,43,62L43,62z"/>
	</g>
</g>
<g>
	<g>
		<path fill="#797D80" d="M60,62L60,62c-2.7,0-5.1-1.7-5.8-4.3l-0.9-3.1c-0.4-1.3,0.6-2.6,1.9-2.6h9.6c1.3,0,2.3,1.3,1.9,2.6
			l-0.9,3.1C65,60.3,62.7,62,60,62z"/>
	</g>
</g>
<g opacity="0.5">
	<g>
		<path fill="#797D80" d="M41,29h-2c-0.6,0-1-0.4-1-1v-2c0-0.6,0.4-1,1-1h2c0.6,0,1,0.4,1,1v2C42,28.6,41.6,29,41,29z"/>
	</g>
</g>
<g opacity="0.5">
	<g>
		<path fill="#797D80" d="M81,29h-2c-0.6,0-1-0.4-1-1v-2c0-0.6,0.4-1,1-1h2c0.6,0,1,0.4,1,1v2C82,28.6,81.6,29,81,29z"/>
	</g>
</g>
<g opacity="0.5">
	<g>
		<path fill="#797D80" d="M84,42h-3c-0.6,0-1-0.4-1-1v-3c0-0.6,0.4-1,1-1h3c0.6,0,1,0.4,1,1v3C85,41.6,84.6,42,84,42z"/>
	</g>
</g>
<g opacity="0.5">
	<g>
		<path fill="#797D80" d="M69,72h-3c-0.6,0-1-0.4-1-1v-3c0-0.6,0.4-1,1-1h3c0.6,0,1,0.4,1,1v3C70,71.6,69.6,72,69,72z"/>
	</g>
</g>
<g opacity="0.5">
	<g>
		<path fill="#797D80" d="M54,72h-3c-0.6,0-1-0.4-1-1v-3c0-0.6,0.4-1,1-1h3c0.6,0,1,0.4,1,1v3C55,71.6,54.6,72,54,72z"/>
	</g>
</g>
<g opacity="0.5">
	<g>
		<path fill="#797D80" d="M84,57h-3c-0.6,0-1-0.4-1-1v-8c0-0.6,0.4-1,1-1h3c0.6,0,1,0.4,1,1v8C85,56.6,84.6,57,84,57z"/>
	</g>
</g>
<g opacity="0.5">
	<g>
		<path fill="#797D80" d="M69,27h-1h-2c-0.6,0-1-0.4-1-1v-2v-1c0-0.6-0.4-1-1-1h-8c-0.6,0-1,0.4-1,1v1v2c0,0.6-0.4,1-1,1h-2h-1
			c-0.6,0-1,0.4-1,1v3c0,0.6,0.4,1,1,1h3c0.6,0,1-0.4,1-1v-1v-2c0-0.6,0.4-1,1-1h1h1h6c0.6,0,1,0.4,1,1v2v1c0,0.6,0.4,1,1,1h3
			c0.6,0,1-0.4,1-1v-3C70,27.4,69.6,27,69,27z"/>
	</g>
</g>
<g opacity="0.5">
	<g>
		<path fill="#797D80" d="M39,47h-3c-0.6,0-1-0.4-1-1v-8c0-0.6,0.4-1,1-1h3c0.6,0,1,0.4,1,1v8C40,46.6,39.6,47,39,47z"/>
	</g>
</g>
<g opacity="0.5">
	<g>
		<path fill="#797D80" d="M44,57h-8c-0.6,0-1-0.4-1-1v-3c0-0.6,0.4-1,1-1h8c0.6,0,1,0.4,1,1v3C45,56.6,44.6,57,44,57z"/>
	</g>
</g>
<g opacity="0.5">
	<g>
		<path fill="#797D80" d="M41,69h-2c-0.6,0-1-0.4-1-1v-2c0-0.6,0.4-1,1-1h2c0.6,0,1,0.4,1,1v2C42,68.6,41.6,69,41,69z"/>
	</g>
</g>
<g opacity="0.5">
	<path fill="#797D80" d="M78,37c-0.3,0-0.5-0.1-0.8-0.2l-9-4c-1-0.4-1.5-1.6-1-2.6c0.4-1,1.6-1.5,2.6-1l9,4c1,0.4,1.5,1.6,1,2.6
		C79.5,36.6,78.8,37,78,37z"/>
</g>
<g>
	<path fill="#797D80" d="M78.5,35c-0.2,0-0.4,0-0.6-0.1l-9-4c-0.8-0.3-1.1-1.2-0.8-2c0.3-0.8,1.2-1.1,2-0.8l9,4
		c0.8,0.3,1.1,1.2,0.8,2C79.6,34.7,79.1,35,78.5,35z"/>
</g>
<g opacity="0.5">
	<path fill="#797D80" d="M42,37c-0.8,0-1.5-0.4-1.8-1.2c-0.4-1,0-2.2,1-2.6l9-4c1-0.5,2.2,0,2.6,1c0.4,1,0,2.2-1,2.6l-9,4
		C42.5,36.9,42.3,37,42,37z"/>
</g>
<g>
	<path fill="#797D80" d="M41.5,35c-0.6,0-1.1-0.3-1.4-0.9c-0.3-0.8,0-1.6,0.8-2l9-4c0.8-0.3,1.6,0,2,0.8c0.3,0.8,0,1.6-0.8,2l-9,4
		C41.9,35,41.7,35,41.5,35z"/>
</g>
<g>
	<g opacity="0.25">
		<path fill="#797D80" d="M23,53c-0.3,0-0.5-0.1-0.7-0.3c-0.4-0.4-0.4-1,0-1.4c0.2-0.2,0.2-0.9-0.1-1.7c-0.4-1-1.1-2.1-1.9-2.9
			C18.2,44.6,17,44,15,44c-0.6,0-1-0.4-1-1s0.4-1,1-1c2.9,0,4.5,1.1,6.7,3.3c1,1,1.9,2.3,2.3,3.6c0.6,1.6,0.5,3-0.3,3.9
			C23.5,52.9,23.3,53,23,53z"/>
	</g>
	<g opacity="0.25">
		<path fill="#797D80" d="M22,46c-0.3,0-0.5-0.1-0.7-0.3c-2.2-2.4-4-2.7-5.3-2.7h-3c-0.6,0-1-0.4-1-1s0.4-1,1-1h3
			c2.5,0,4.7,1.1,6.7,3.3c0.4,0.4,0.3,1-0.1,1.4C22.5,45.9,22.2,46,22,46z"/>
	</g>
	<g opacity="0.25">
		<path fill="#797D80" d="M18,55c-3.7,0-7.3-3.2-8.5-6.1c-0.8-2-0.6-4,0.6-5.3c-0.2-0.7-1.7-2.4-2.7-3.2c-0.5-0.3-0.6-0.9-0.3-1.4
			c0.3-0.5,0.9-0.6,1.4-0.3c1.2,0.8,3.5,3.2,3.6,4.8c0,0.5-0.1,0.9-0.4,1.2c-1,1-0.8,2.4-0.4,3.4c1.1,2.6,4.2,4.9,6.7,4.9
			c0.6,0,1,0.4,1,1S18.5,55,18,55z"/>
	</g>
	<g>
		<path fill="#797D80" d="M18,55c-3.8,0-8.9-3.5-10.4-7.1c-0.7-1.8-0.5-3.4,0.7-4.6c0.4-0.4,0.4-0.7,0.4-0.8c0-0.8-1.3-1.8-2.2-2.5
			C5.6,39.2,5,38.8,5,38c0-1.5,1.1-3,3-3c2.7,0,5.2,1.8,8.3,4l0.3,0.2c0.1,0.1,0.2,0.2,0.3,0.3c0.2,0.3,0.2,0.7,0.1,1.1
			c-0.3,0.7-1,0.8-1.9,1c-0.2,0-0.6,0.1-0.9,0.2c0.5,0.3,1.1,0.4,2.5,0.4l0.4,0c0.2,0,0.4,0,0.6,0c1.7-0.1,3,0.1,5.1,2.3
			c1.5,1.9,2.2,3.4,2.3,4.6c0.1,0.9-0.3,2.7-1.3,3.7c-0.4,0.4-1,0.4-1.4,0.1c-0.4-0.4-0.4-1-0.1-1.4c0.5-0.5,0.8-1.7,0.7-2.3
			c0-0.6-0.4-1.6-1.8-3.4c-1.5-1.7-2.2-1.7-3.5-1.6c-0.2,0-0.5,0-0.7,0l-0.4,0c-1.7,0-3.1,0-4.3-1.3c-0.6-0.7-0.6-1.3-0.5-1.7
			c0.3-0.8,1.1-1.1,2-1.3C11.5,38.1,9.8,37,8,37c-0.6,0-0.9,0.5-1,0.8c0.2,0.2,0.5,0.4,0.8,0.7c1.2,1,2.8,2.3,2.9,3.9
			c0,0.8-0.3,1.6-1,2.3c-0.2,0.2-0.9,0.9-0.3,2.4c1.2,2.8,5.6,5.9,8.6,5.9c0.6,0,1,0.4,1,1S18.5,55,18,55z M6.9,37.7L6.9,37.7z"/>
	</g>
	<g>
		<path fill="#797D80" d="M22,46c-0.3,0-0.5-0.1-0.7-0.3c-0.2-0.2-0.3-0.4-0.5-0.6c-0.6-0.7-1.4-1.6-2.3-2.3
			c-0.5-0.3-0.6-0.9-0.2-1.4c0.3-0.5,0.9-0.6,1.4-0.2c1.2,0.8,2.1,1.9,2.7,2.6c0.2,0.2,0.3,0.4,0.5,0.5c0.4,0.4,0.3,1-0.1,1.4
			C22.5,45.9,22.2,46,22,46z"/>
	</g>
</g>
<g>
	<g opacity="0.25">
		<path fill="#797D80" d="M75,66.1c-1.9,2.4-2,6.8-2,6.9c0,1.1,0.5,2.1,1.2,3c0,0,1.5,0.5,0.8-2.6C74.4,72.7,74,71.9,74,71
			C74,70.3,74.2,68,75,66.1z"/>
	</g>
	<g opacity="0.25">
		<path fill="#797D80" d="M88,79c-3,0-13-3.4-13-8c0-0.1,0-0.3,0-0.5c-0.1-1.6-0.2-4.7,1.8-5.9c1.3-0.9,3.2-0.7,5.7,0.6
			c0.5,0.3,0.7,0.9,0.4,1.3c-0.3,0.5-0.9,0.7-1.3,0.4c-1.7-0.9-3-1.1-3.7-0.7c-1,0.7-0.9,3-0.9,4.2c0,0.2,0,0.5,0,0.6
			c0,2.7,8,6,11,6c0.6,0,1,0.4,1,1S88.6,79,88,79z"/>
	</g>
	<g>
		<path fill="#797D80" d="M88,79c-5.1,0-15-2.8-15-8c0-0.1,0.1-6.7,3.5-8.1c1-0.4,2.1-0.3,3.3,0.3c0.1-0.2,0.2-0.5,0.3-0.7
			c0.6-0.9,1.9-1.4,3.3-1.4c1.9,0,3.4,2.5,4.7,4.4c0.2,0.4,0.5,0.7,0.7,1c0.6,0.9,1,1,2.2,1.3c0.4,0.1,0.8,0.2,1.2,0.3
			c1.9,0.7,2.7,2.5,2.7,4c0,1.2-0.8,2.3-2.3,3.7c-0.4,0.4-1,0.4-1.4,0c-0.4-0.4-0.4-1,0-1.4c0.5-0.5,1.7-1.7,1.7-2.3
			c0-0.5-0.3-1.7-1.3-2.1c-0.4-0.1-0.8-0.2-1.1-0.3c-1.4-0.4-2.4-0.6-3.4-2.1c-0.2-0.3-0.4-0.7-0.7-1.1c-0.7-1-2.2-3.5-3-3.5
			c-1,0-1.5,0.4-1.7,0.6c-0.2,0.2,0.2,1,0.9,1.7c0.4,0.4,0.4,1,0,1.4c-0.4,0.4-1,0.4-1.4,0c-1.7-1.7-3.1-2.4-4-2
			C75.6,65.4,75,69.6,75,71c0,3.3,8,6,13,6c0.6,0,1,0.4,1,1S88.6,79,88,79z"/>
	</g>
</g>
<g>
	<path fill="#797D80" d="M52,37h-2v2c0,1.7-1.3,3-3,3h-2v2c0,1.7,1.3,3,3,3h4c1.7,0,3-1.3,3-3v-4C55,38.3,53.7,37,52,37z"/>
</g>
<g>
	<path fill="#797D80" d="M72,37h-2v2c0,1.7-1.3,3-3,3h-2v2c0,1.7,1.3,3,3,3h4c1.7,0,3-1.3,3-3v-4C75,38.3,73.7,37,72,37z"/>
</g>
</svg>
